<svg xmlns="http://www.w3.org/2000/svg" class="icon icon-tabler icon-tabler-border-radius" width="250px" height="250px" viewBox="0 0 24 24" stroke-width="1.00" stroke="rgba(1, 1, 1, 1)" fill="none" stroke-linecap="round" stroke-linejoin="round"><circle cx="50%" cy="50%" r="50%" stroke="none" stroke-width="0" fill="rgba(255, 255, 255, 1)"/><g transform="translate(2.40, 2.40) scale(0.8)"><path stroke="none" d="M0 0h24v24H0z" fill="none"/><path d="M4 12v-4a4 4 0 0 1 4 -4h4"/><line x1="16" y1="4" x2="16" y2="4.01"/><line x1="20" y1="4" x2="20" y2="4.01"/><line x1="20" y1="8" x2="20" y2="8.01"/><line x1="20" y1="12" x2="20" y2="12.01"/><line x1="4" y1="16" x2="4" y2="16.01"/><line x1="20" y1="16" x2="20" y2="16.01"/><line x1="4" y1="20" x2="4" y2="20.01"/><line x1="8" y1="20" x2="8" y2="20.01"/><line x1="12" y1="20" x2="12" y2="20.01"/><line x1="16" y1="20" x2="16" y2="20.01"/><line x1="20" y1="20" x2="20" y2="20.01"/></g>
  
  
  
  
  
  
  
  
  
  
  
  
  
</svg>